<svg width="80" height="36" viewBox="0 0 80 36" fill="none" xmlns="http://www.w3.org/2000/svg">
<path fill-rule="evenodd" clip-rule="evenodd" d="M19.3898 7.7434C19.0508 8.15094 18.7119 8.62641 18.3051 9.10189C16.9491 10.6641 15.4576 12.4981 15.8644 14.1962C16.339 16.0981 18.2373 16.6415 20.6102 17.2528C21.6949 17.5245 22.9152 17.8642 24.0678 18.3396C21.4237 16.166 19.8644 15.1472 19.7966 13.517C19.661 12.0226 20.8136 11.2075 22.1017 9.30566C23.8644 6.6566 23.4576 3.80377 21.4237 1.96981C21.7627 4.48302 19.5254 7.53962 19.3898 7.7434Z" fill="#66CC5D"/>
<path fill-rule="evenodd" clip-rule="evenodd" d="M27.3898 21.6C25.3559 19.4264 22.7119 18.7472 20.4068 18.0679C18.4407 17.5245 16.7458 17.0491 15.7288 15.8264C16.4746 18.0679 18.5763 19.3585 21.4915 21.6C25.4915 24.5887 26.1017 33.8943 11.5932 34.5057C11.5254 34.5057 11.3898 34.5057 11.2542 34.5057C11.0508 34.5057 10.983 34.8453 11.2542 34.9132C15.0508 35.8642 22.7119 36.3396 26.7797 32.4C29.6949 29.7509 30.1017 25.2679 27.3898 21.6Z" fill="#66CC5D"/>
<path fill-rule="evenodd" clip-rule="evenodd" d="M9.49151 34.166C4.94914 31.7887 5.49151 19.4264 5.49151 14.6038C5.49151 13.7887 5.55931 12.9736 5.62711 12.2264C5.6949 11.2755 5.8305 10.2566 6.16948 9.23774C6.98304 6.04528 8.88134 2.64906 11.5932 0.747169C9.62711 1.35849 7.18643 2.44528 5.08473 4.41509C1.42372 7.87925 0.474565 12.9057 0.542362 18.4075C0.677955 31.6528 6.71185 33.8943 9.35592 34.5057H9.42372C9.55931 34.5057 9.62711 34.4377 9.62711 34.3019C9.55931 34.3019 9.55931 34.234 9.49151 34.166Z" fill="#66CC5D"/>
<path fill-rule="evenodd" clip-rule="evenodd" d="M19.9322 1.22264C19.5254 0.815095 18.9152 0.611321 18.9152 0.611321C17.2203 3.8743e-07 15.5932 3.8743e-07 14.1695 0.407548C12.4068 0.950944 10.7796 2.24151 9.42372 4.1434C8.54236 5.36604 7.86439 6.79245 7.32202 8.28679C9.8305 4.21132 14.8474 2.58113 17.9661 3.80377C18.8474 4.1434 19.5254 4.75472 19.661 5.70566C20.4068 4.27925 21.2203 2.37736 19.9322 1.22264Z" fill="#66CC5D"/>
<path fill-rule="evenodd" clip-rule="evenodd" d="M34.3729 23.5019C34.3729 21.2604 35.8644 19.2226 38.2373 19.2226C39.3898 19.2226 40.2034 19.5623 40.8813 20.1736C40.9491 20.2415 41.0169 20.3094 41.0169 20.4453C41.0169 20.5811 40.8813 20.7849 40.7457 20.7849C40.6779 20.7849 40.6102 20.7849 40.5424 20.717C39.9322 20.2415 39.2542 19.9019 38.1695 19.9019C36.2712 19.9019 34.983 21.6 34.983 23.5698C34.983 25.6755 36.2712 27.3057 38.3051 27.3057C39.322 27.3057 40.2034 26.8302 40.8135 26.3547V23.9774H38.4407C38.3051 23.9774 38.1695 23.8415 38.1695 23.7057C38.1695 23.5698 38.3051 23.434 38.4407 23.434H41.0847C41.2203 23.434 41.3559 23.5698 41.3559 23.7736V26.4906C41.3559 26.6264 41.2881 26.7623 41.1525 26.8302C40.4068 27.4415 39.4576 27.917 38.3051 27.917C35.8644 27.7132 34.3729 25.8113 34.3729 23.5019Z" fill="#66CC5D"/>
<path d="M42.7796 19.4943C42.7796 19.2906 42.9939 19.1547 43.2796 19.1547C43.5653 19.1547 43.7796 19.2906 43.7796 19.4943V19.6981C43.7796 19.9019 43.5653 20.0377 43.2796 20.0377C42.9939 20.0377 42.7796 19.9019 42.7796 19.6981V19.4943ZM42.8511 21.8038C42.8511 21.6679 42.9939 21.5321 43.2796 21.5321C43.5653 21.5321 43.7082 21.6679 43.7082 21.8038V27.3057C43.7082 27.5094 43.5653 27.5774 43.2796 27.5774C42.9939 27.5774 42.8511 27.4415 42.8511 27.3057V21.8038Z" fill="#66CC5D"/>
<path d="M44.6101 24.5887C44.6101 22.8906 45.8305 21.3962 47.5254 21.3962C49.2203 21.3962 50.4406 22.8226 50.4406 24.5208C50.4406 26.2189 49.2203 27.6453 47.5254 27.6453C45.8305 27.7132 44.6101 26.2868 44.6101 24.5887ZM49.8305 24.5887C49.8305 23.0943 48.8135 21.9396 47.4576 21.9396C46.1017 21.9396 45.1525 23.0943 45.1525 24.5208C45.1525 25.9472 46.1695 27.1698 47.5254 27.1698C48.8813 27.1698 49.8305 26.0151 49.8305 24.5887Z" fill="#66CC5D"/>
<path fill-rule="evenodd" clip-rule="evenodd" d="M51.322 23.5019C51.322 21.1245 52.9491 19.2226 55.2542 19.2226C56.5424 19.2226 57.3559 19.6981 58.1017 20.3774C58.1695 20.4453 58.2373 20.5132 58.2373 20.6491C58.2373 20.7849 58.1017 20.9887 57.9661 20.9887C57.8983 20.9887 57.8305 20.9208 57.7627 20.9208C57.0847 20.3094 56.339 19.834 55.2542 19.834C53.3559 19.834 52 21.4642 52 23.5019C52 25.6075 53.4237 27.2377 55.322 27.2377C56.4068 27.2377 57.1525 26.8302 57.8305 26.083C57.8983 26.0151 57.9661 26.0151 58.0339 26.0151C58.1695 26.0151 58.3051 26.1509 58.3051 26.2868C58.3051 26.3547 58.2373 26.4226 58.2373 26.4906C57.4237 27.2377 56.6102 27.7811 55.2542 27.7811C53.0169 27.7132 51.322 25.8792 51.322 23.5019Z" fill="#66CC5D"/>
<path fill-rule="evenodd" clip-rule="evenodd" d="M59.4576 19.2226C59.4576 19.0868 59.5932 18.9509 59.7288 18.9509C59.8644 18.9509 60 19.0868 60 19.2226V27.3736C60 27.5774 59.8644 27.6453 59.7288 27.6453C59.5932 27.6453 59.4576 27.5094 59.4576 27.3736V19.2226Z" fill="#66CC5D"/>
<path d="M61.1525 24.5887C61.1525 22.8906 62.3729 21.3962 64.0678 21.3962C65.7627 21.3962 66.983 22.8226 66.983 24.5208C66.983 26.2189 65.7627 27.6453 64.0678 27.6453C62.3729 27.7132 61.1525 26.2868 61.1525 24.5887ZM66.4407 24.5887C66.4407 23.0943 65.4237 21.9396 64.0678 21.9396C62.7118 21.9396 61.7627 23.0943 61.7627 24.5208C61.7627 25.9472 62.7796 27.1698 64.1356 27.1698C65.4237 27.1698 66.4407 26.0151 66.4407 24.5887Z" fill="#66CC5D"/>
<path fill-rule="evenodd" clip-rule="evenodd" d="M72.8814 27.3057C72.8814 27.4415 72.7458 27.5774 72.6102 27.5774C72.4746 27.5774 72.339 27.4415 72.339 27.3057V26.4906C71.9322 27.1698 71.322 27.7811 70.3051 27.7811C68.8814 27.7811 68 26.7623 68 25.2679V21.8038C68 21.6 68.1356 21.5321 68.2712 21.5321C68.4068 21.5321 68.5424 21.6679 68.5424 21.8038V25.1321C68.5424 26.3547 69.2203 27.1698 70.3729 27.1698C71.5254 27.1698 72.339 26.2868 72.339 24.9962V21.7358C72.339 21.5321 72.4746 21.4641 72.6102 21.4641C72.7458 21.4641 72.8814 21.6 72.8814 21.7358V27.3057Z" fill="#66CC5D"/>
<path d="M79.7288 27.3057C79.7288 27.5094 79.5932 27.5774 79.4576 27.5774C79.322 27.5774 79.1864 27.4415 79.1864 27.3057V26.2189C78.7118 27.034 77.9661 27.7132 76.8135 27.7132C75.4576 27.7132 74.0339 26.5585 74.0339 24.5887C74.0339 22.6189 75.4576 21.4642 76.8135 21.4642C77.9661 21.4642 78.7118 22.1434 79.1864 22.8906V19.2226C79.1864 19.0189 79.322 18.9509 79.4576 18.9509C79.5932 18.9509 79.7288 19.0868 79.7288 19.2226V27.3057ZM74.644 24.5208C74.644 26.1509 75.661 27.1698 76.8813 27.1698C78.1017 27.1698 79.1864 26.083 79.1864 24.5887C79.1864 23.0264 78.0339 22.0075 76.8813 22.0075C75.5932 21.9396 74.644 22.9585 74.644 24.5208Z" fill="#66CC5D"/>
<path d="M34.3729 8.94775C34.3729 8.5402 34.7118 8.20058 35.1186 8.20058H38.2373C39.1864 8.20058 40 8.47227 40.4746 8.94775C40.8813 9.35529 41.0847 9.76284 41.0847 10.3742C41.0847 11.393 40.4746 11.9364 39.8644 12.276C40.8813 12.6157 41.5593 13.1591 41.5593 14.3138C41.5593 15.8081 40.2712 16.6232 38.3729 16.6232H35.1186C34.7118 16.6232 34.3729 16.2836 34.3729 15.876V8.94775ZM37.8983 11.7327C38.8474 11.7327 39.5254 11.3251 39.5254 10.5779C39.5254 9.89869 38.983 9.49114 38.0339 9.49114H35.8644V11.7327H37.8983ZM38.3729 15.3327C39.3898 15.3327 40 14.9251 40 14.1779C40 13.4308 39.3898 13.0232 38.2373 13.0232H35.8644V15.3327H38.3729Z" fill="#66CC5D"/>
<path d="M42.3729 8.87982C42.3729 8.47227 42.7118 8.20058 43.1864 8.20058C43.661 8.20058 44 8.47227 44 8.87982V8.94775C44 9.35529 43.661 9.62699 43.1864 9.62699C42.7118 9.62699 42.3729 9.35529 42.3729 8.94775V8.87982ZM42.5085 11.1213C42.5085 10.7138 42.8474 10.4421 43.2542 10.4421C43.661 10.4421 44 10.7817 44 11.1213V15.944C44 16.3515 43.661 16.6232 43.2542 16.6232C42.8474 16.6232 42.5085 16.2836 42.5085 15.944V11.1213Z" fill="#66CC5D"/>
<path fill-rule="evenodd" clip-rule="evenodd" d="M44.8813 16.0798C44.8813 15.8081 44.9491 15.6043 45.2203 15.4006L48.5424 11.6647H45.5593C45.2203 11.6647 44.9491 11.393 44.9491 11.1213C44.9491 10.7817 45.2203 10.51 45.5593 10.51H49.6949C50.1017 10.51 50.3729 10.7817 50.3729 11.0534V11.1213C50.3729 11.393 50.3051 11.5968 50.0339 11.8006L46.7119 15.5364H49.7627C50.1017 15.5364 50.3729 15.8081 50.3729 16.1477C50.3729 16.4874 50.1017 16.6911 49.7627 16.6911H45.4915C45.1525 16.6232 44.8813 16.4194 44.8813 16.0798Z" fill="#66CC5D"/>
<path fill-rule="evenodd" clip-rule="evenodd" d="M51.2542 11.1213C51.2542 10.7138 51.5932 10.4421 52 10.4421C52.4068 10.4421 52.7458 10.7817 52.7458 11.1213V11.461C53.1525 10.8496 53.6949 10.3742 54.7119 10.3742C56.1356 10.3742 56.9491 11.3251 56.9491 12.7515V16.0119C56.9491 16.4194 56.6102 16.6911 56.2034 16.6911C55.7966 16.6911 55.4576 16.3515 55.4576 16.0119V13.1591C55.4576 12.2081 54.983 11.6647 54.1017 11.6647C53.2881 11.6647 52.678 12.2081 52.678 13.1591V16.0119C52.678 16.4194 52.339 16.6911 51.9322 16.6911C51.5254 16.6911 51.1864 16.3515 51.1864 16.0119L51.2542 11.1213Z" fill="#66CC5D"/>
<path d="M57.6271 13.6345C57.6271 11.8685 58.9152 10.4421 60.678 10.4421C62.6441 10.4421 63.661 12.0723 63.661 13.4308C63.661 13.8383 63.322 14.11 62.983 14.11H59.0508C59.1864 15.1289 59.9322 15.6723 60.8813 15.6723C61.4915 15.6723 61.9661 15.4685 62.3729 15.1289C62.4407 15.061 62.5763 14.993 62.7119 14.993C63.0508 14.993 63.322 15.2647 63.322 15.5364C63.322 15.7402 63.2542 15.876 63.1186 15.944C62.5085 16.4194 61.8305 16.7591 60.8813 16.7591C59.0508 16.7591 57.6271 15.5364 57.6271 13.6345ZM62.2373 13.1591C62.1695 12.276 61.5593 11.5289 60.678 11.5289C59.7966 11.5289 59.1864 12.2081 59.0508 13.1591H62.2373Z" fill="#66CC5D"/>
<path fill-rule="evenodd" clip-rule="evenodd" d="M64.8135 14.9251V11.6647H64.5424C64.2034 11.6647 63.9322 11.393 63.9322 11.0534C63.9322 10.7138 64.2034 10.4421 64.5424 10.4421H64.8135V9.42322C64.8135 9.01567 65.1525 8.74397 65.5593 8.74397C65.9661 8.74397 66.3051 9.0836 66.3051 9.42322V10.4421H67.3898C67.7288 10.4421 68 10.7138 68 11.0534C68 11.393 67.7288 11.6647 67.3898 11.6647H66.3051V14.6534C66.3051 15.1968 66.5763 15.4006 67.0508 15.4006C67.1864 15.4006 67.3898 15.3327 67.3898 15.3327C67.7288 15.3327 68 15.6044 68 15.944C68 16.2157 67.7966 16.4194 67.5932 16.4874C67.2542 16.6232 66.983 16.6232 66.6441 16.6232C65.5593 16.7591 64.8135 16.2836 64.8135 14.9251Z" fill="#66CC5D"/>
<path d="M67.396 8.76226C67.396 8.42264 67.6672 8.08302 68.0739 8.08302C68.4807 8.08302 68.7519 8.35471 68.7519 8.76226C68.7519 9.10188 68.4807 9.44151 68.0739 9.44151C67.6672 9.37358 67.396 9.10188 67.396 8.76226ZM68.6163 8.69434C68.6163 8.42264 68.3451 8.15094 68.0739 8.15094C67.7349 8.15094 67.4638 8.42264 67.4638 8.69434C67.4638 9.03396 67.7349 9.23773 68.0061 9.23773C68.3451 9.30566 68.6163 9.03396 68.6163 8.69434Z" fill="#66CC5D"/>
<path d="M67.8027 8.45471L67.9027 8.35471H68.3027C68.4027 8.35471 68.6027 8.35471 68.6027 8.45471C68.7027 8.45471 68.7027 8.55471 68.7027 8.65471C68.7027 8.75471 68.6027 8.85471 68.4027 8.95471L68.6027 9.15471C68.6027 9.15471 68.6027 9.15471 68.6027 9.25471L68.5027 9.35471H68.4027L68.2027 8.95471H68.0027V9.25471L67.9027 9.35471C67.9027 9.35471 67.8027 9.35471 67.8027 9.25471V8.45471ZM68.2027 8.85471C68.3027 8.85471 68.4027 8.85471 68.4027 8.75471C68.4027 8.65471 68.4027 8.55471 68.2027 8.55471H67.9027V8.85471H68.2027Z" fill="#66CC5D"/>
</svg>
